<?xml version="1.0" encoding="UTF-8"?>
<svg width="1200pt" height="1200pt" version="1.1" viewBox="0 0 1200 1200" xmlns="http://www.w3.org/2000/svg">
 <path d="m96 312v-154.78c0-33.75 27.469-61.219 61.219-61.219h154.78c13.219 0 24 10.781 24 24s-10.781 24-24 24h-154.78c-7.3125 0-13.219 5.8594-13.219 13.219v154.78c0 13.219-10.781 24-24 24s-24-10.781-24-24zm946.78-216h-154.78c-13.219 0-24 10.781-24 24s10.781 24 24 24h154.78c7.3125 0 13.219 5.8594 13.219 13.219v154.78c0 13.219 10.781 24 24 24s24-10.781 24-24v-154.78c0-33.75-27.469-61.219-61.219-61.219zm-730.78 960h-154.78c-7.3125 0-13.219-5.8594-13.219-13.219v-154.78c0-13.219-10.781-24-24-24s-24 10.781-24 24v154.78c0 33.703 27.469 61.219 61.219 61.219h154.78c13.219 0 24-10.781 24-24s-10.781-24-24-24zm768-192c-13.219 0-24 10.781-24 24v154.78c0 7.3125-5.8594 13.219-13.219 13.219h-154.78c-13.219 0-24 10.781-24 24s10.781 24 24 24h154.78c33.703 0 61.219-27.469 61.219-61.219v-154.78c0-13.219-10.781-24-24-24zm-91.453-306.61-203.63 203.53c-4.4531 4.5469-10.547 7.0781-16.922 7.0781h-72c-60.375 0-94.922-60.469-120-104.77-9.1406-16.078-18.609-32.625-25.312-38.859-9.6094-8.8594-13.219-9.2344-14.062-9.2344-3.7031 0.23438-11.625 9.8438-15.844 15-6.6094 8.0625-26.766 32.297-56.062 28.453-24-3.1406-41.859-24.141-46.781-54.703-2.3906-15.141-2.3906-29.766-2.3906-43.922 0-7.6875 0-15.469-0.46875-23.156-1.2188-20.531-6.2344-35.391-15-44.156-11.297-11.391-32.391-15.469-53.766-10.547-32.297 7.4531-61.312 32.859-74.062 64.922-12.375 31.219-10.312 69 5.5312 101.3 15.375 31.312 43.078 57.609 77.766 74.062 12 5.625 17.156 19.922 11.391 31.922-4.1719 8.625-12.797 13.688-21.797 13.688-3.4688 0-6.9375-0.70312-10.219-2.2969-44.531-21-80.156-55.219-100.31-96.234-21.703-44.297-24.375-96.609-7.0781-140.16 18.609-46.922 60-83.062 107.86-93.938 37.781-8.7656 75.609 0.23437 98.625 23.531 17.297 17.391 27 42.703 28.922 75.141 0.46875 8.625 0.46875 17.391 0.46875 26.062 0 12.844 0 24.938 1.7812 36.375 1.3125 8.3906 4.6875 13.922 6.2344 14.859-0.14062-0.23438 3.8438-1.4531 12.375-11.625 10.078-12.141 25.312-30.609 49.547-32.156 21.375-1.5469 37.688 10.781 49.547 21.609 12.375 11.297 22.688 29.531 34.688 50.531 15.141 26.531 32.859 57.703 54.375 72.234l0.046875-39.938c0-6.375 2.5312-12.469 7.0781-16.922l203.53-203.53c16.219-16.219 42.609-16.219 58.781 0l47.062 47.062c16.312 16.172 16.312 42.609 0.09375 58.781zm-110.48 42.609-38.062-38.062-120 120v38.062h38.062zm72-72-38.062-38.062-38.062 38.062 38.062 38.062zm-14.062-264h-672c-13.219 0-24 10.781-24 24s10.781 24 24 24h672c13.219 0 24-10.781 24-24s-10.781-24-24-24zm-672 624c-13.219 0-24 10.781-24 24s10.781 24 24 24h672c13.219 0 24-10.781 24-24s-10.781-24-24-24z"/>
</svg>
